0
SECTION
2
HEADER
9
$ACADVER
1
AC1009
9
$INSUNITS
70
4
0
ENDSEC
0
SECTION
2
BLOCKS
0
BLOCK
8
0
2
VCB-IN
70
0
10
0
20
0
30
0
3
VCB-IN
0
LINE
8
SYMBOL
10
-8
20
-8
30
0
11
8
21
8
31
0
0
ENDBLK
8
0
0
BLOCK
8
0
2
CT-1
70
0
10
0
20
0
30
0
3
CT-1
0
LINE
8
SYMBOL
10
-8
20
-8
30
0
11
8
21
8
31
0
0
ENDBLK
8
0
0
BLOCK
8
0
2
TR-1
70
0
10
0
20
0
30
0
3
TR-1
0
LINE
8
SYMBOL
10
-8
20
-8
30
0
11
8
21
8
31
0
0
ENDBLK
8
0
0
BLOCK
8
0
2
ACB-1
70
0
10
0
20
0
30
0
3
ACB-1
0
LINE
8
SYMBOL
10
-8
20
-8
30
0
11
8
21
8
31
0
0
ENDBLK
8
0
0
BLOCK
8
0
2
BUSBAR-1
70
0
10
0
20
0
30
0
3
BUSBAR-1
0
LINE
8
SYMBOL
10
-8
20
-8
30
0
11
8
21
8
31
0
0
ENDBLK
8
0
0
BLOCK
8
0
2
MCC-A
70
0
10
0
20
0
30
0
3
MCC-A
0
LINE
8
SYMBOL
10
-8
20
-8
30
0
11
8
21
8
31
0
0
ENDBLK
8
0
0
BLOCK
8
0
2
MCC-B
70
0
10
0
20
0
30
0
3
MCC-B
0
LINE
8
SYMBOL
10
-8
20
-8
30
0
11
8
21
8
31
0
0
ENDBLK
8
0
0
BLOCK
8
0
2
MCC-C
70
0
10
0
20
0
30
0
3
MCC-C
0
LINE
8
SYMBOL
10
-8
20
-8
30
0
11
8
21
8
31
0
0
ENDBLK
8
0
0
BLOCK
8
0
2
MTR-A1
70
0
10
0
20
0
30
0
3
MTR-A1
0
LINE
8
SYMBOL
10
-8
20
-8
30
0
11
8
21
8
31
0
0
ENDBLK
8
0
0
BLOCK
8
0
2
MTR-A2
70
0
10
0
20
0
30
0
3
MTR-A2
0
LINE
8
SYMBOL
10
-8
20
-8
30
0
11
8
21
8
31
0
0
ENDBLK
8
0
0
BLOCK
8
0
2
MTR-B1
70
0
10
0
20
0
30
0
3
MTR-B1
0
LINE
8
SYMBOL
10
-8
20
-8
30
0
11
8
21
8
31
0
0
ENDBLK
8
0
0
BLOCK
8
0
2
MTR-C1
70
0
10
0
20
0
30
0
3
MTR-C1
0
LINE
8
SYMBOL
10
-8
20
-8
30
0
11
8
21
8
31
0
0
ENDBLK
8
0
0
ENDSEC
0
SECTION
2
ENTITIES
0
INSERT
8
SYMBOL
2
VCB-IN
10
400
20
900
30
0
0
INSERT
8
SYMBOL
2
CT-1
10
400
20
820
30
0
0
INSERT
8
SYMBOL
2
TR-1
10
400
20
740
30
0
0
INSERT
8
SYMBOL
2
ACB-1
10
400
20
660
30
0
0
INSERT
8
SYMBOL
2
BUSBAR-1
10
400
20
580
30
0
0
INSERT
8
SYMBOL
2
MCC-A
10
200
20
480
30
0
0
INSERT
8
SYMBOL
2
MCC-B
10
400
20
480
30
0
0
INSERT
8
SYMBOL
2
MCC-C
10
600
20
480
30
0
0
INSERT
8
SYMBOL
2
MTR-A1
10
150
20
380
30
0
0
INSERT
8
SYMBOL
2
MTR-A2
10
250
20
380
30
0
0
INSERT
8
SYMBOL
2
MTR-B1
10
400
20
380
30
0
0
INSERT
8
SYMBOL
2
MTR-C1
10
600
20
380
30
0
0
LINE
8
WIRE
10
400
20
900
30
0
11
400
21
820
31
0
0
LINE
8
WIRE
10
400
20
820
30
0
11
400
21
740
31
0
0
LINE
8
WIRE
10
400
20
740
30
0
11
400
21
660
31
0
0
LINE
8
WIRE
10
400
20
660
30
0
11
400
21
580
31
0
0
LINE
8
WIRE
10
400
20
580
30
0
11
200
21
480
31
0
0
LINE
8
WIRE
10
400
20
580
30
0
11
400
21
480
31
0
0
LINE
8
WIRE
10
400
20
580
30
0
11
600
21
480
31
0
0
LINE
8
WIRE
10
200
20
480
30
0
11
150
21
380
31
0
0
LINE
8
WIRE
10
200
20
480
30
0
11
250
21
380
31
0
0
LINE
8
WIRE
10
400
20
480
30
0
11
400
21
380
31
0
0
LINE
8
WIRE
10
600
20
480
30
0
11
600
21
380
31
0
0
TEXT
8
TEXT
10
420
20
900
30
0
40
2.5
1
22.9kV
0
TEXT
8
TEXT
10
420
20
740
30
0
40
2.5
1
1000kVA
0
TEXT
8
TEXT
10
420
20
580
30
0
40
2.5
1
380V
0
ENDSEC
0
EOF
