0
SECTION
2
HEADER
9
$ACADVER
1
AC1015
9
$INSUNITS
70
4
0
ENDSEC
0
SECTION
2
BLOCKS
0
BLOCK
8
0
2
MCCB-N
70
0
10
0
20
0
30
0
3
MCCB-N
0
LINE
8
SYMBOL
10
-8
20
-8
30
0
11
8
21
8
31
0
0
ENDBLK
8
0
0
BLOCK
8
0
2
DB-N
70
0
10
0
20
0
30
0
3
DB-N
0
LINE
8
SYMBOL
10
-8
20
-8
30
0
11
8
21
8
31
0
0
ENDBLK
8
0
0
BLOCK
8
0
2
LOAD-N1
70
0
10
0
20
0
30
0
3
LOAD-N1
0
LINE
8
SYMBOL
10
-8
20
-8
30
0
11
8
21
8
31
0
0
ENDBLK
8
0
0
BLOCK
8
0
2
LOAD-N2
70
0
10
0
20
0
30
0
3
LOAD-N2
0
LINE
8
SYMBOL
10
-8
20
-8
30
0
11
8
21
8
31
0
0
ENDBLK
8
0
0
ENDSEC
0
SECTION
2
ENTITIES
0
INSERT
8
SYMBOL
2
MCCB-N
10
300
20
600
30
0
0
INSERT
8
SYMBOL
2
DB-N
10
300
20
500
30
0
0
INSERT
8
SYMBOL
2
LOAD-N1
10
220
20
400
30
0
0
INSERT
8
SYMBOL
2
LOAD-N2
10
380
20
400
30
0
0
LINE
8
WIRE
10
300
20
600
30
0
11
300
21
500
31
0
0
LINE
8
WIRE
10
300
20
500
30
0
11
220
21
400
31
0
0
LINE
8
WIRE
10
300
20
500
30
0
11
380
21
400
31
0
0
LINE
8
DIM
10
60
20
120
30
0
11
560
21
120
31
0
0
LINE
8
HATCH
10
60
20
127
30
0
11
560
21
127
31
0
0
LINE
8
DIM
10
60
20
134
30
0
11
560
21
134
31
0
0
LINE
8
HATCH
10
60
20
141
30
0
11
560
21
141
31
0
0
LINE
8
DIM
10
60
20
148
30
0
11
560
21
148
31
0
0
LINE
8
HATCH
10
60
20
155
30
0
11
560
21
155
31
0
0
LINE
8
DIM
10
60
20
162
30
0
11
560
21
162
31
0
0
LINE
8
HATCH
10
60
20
169
30
0
11
560
21
169
31
0
0
LINE
8
DIM
10
60
20
176
30
0
11
560
21
176
31
0
0
LINE
8
HATCH
10
60
20
183
30
0
11
560
21
183
31
0
0
LINE
8
DIM
10
60
20
190
30
0
11
560
21
190
31
0
0
LINE
8
HATCH
10
60
20
197
30
0
11
560
21
197
31
0
0
LINE
8
DIM
10
60
20
204
30
0
11
560
21
204
31
0
0
LINE
8
HATCH
10
60
20
211
30
0
11
560
21
211
31
0
0
LINE
8
DIM
10
60
20
218
30
0
11
560
21
218
31
0
0
LINE
8
HATCH
10
60
20
225
30
0
11
560
21
225
31
0
0
LINE
8
DIM
10
60
20
232
30
0
11
560
21
232
31
0
0
LINE
8
HATCH
10
60
20
239
30
0
11
560
21
239
31
0
0
LINE
8
DIM
10
60
20
246
30
0
11
560
21
246
31
0
0
LINE
8
HATCH
10
60
20
253
30
0
11
560
21
253
31
0
0
LINE
8
DIM
10
60
20
260
30
0
11
560
21
260
31
0
0
LINE
8
HATCH
10
60
20
267
30
0
11
560
21
267
31
0
0
LINE
8
DIM
10
60
20
274
30
0
11
560
21
274
31
0
0
LINE
8
HATCH
10
60
20
281
30
0
11
560
21
281
31
0
0
LWPOLYLINE
8
FRAME
90
5
70
0
10
20
20
20
10
760
20
20
10
760
20
760
10
20
20
760
10
20
20
20
0
ENDSEC
0
EOF
