0
SECTION
2
HEADER
9
$ACADVER
1
AC1015
9
$INSUNITS
70
4
0
ENDSEC
0
SECTION
2
BLOCKS
0
BLOCK
8
0
2
TR-1
70
0
10
0
20
0
30
0
3
TR-1
0
LINE
8
SYMBOL
10
-8
20
-8
30
0
11
8
21
8
31
0
0
ENDBLK
8
0
0
BLOCK
8
0
2
MCCB-1
70
0
10
0
20
0
30
0
3
MCCB-1
0
LINE
8
SYMBOL
10
-8
20
-8
30
0
11
8
21
8
31
0
0
ENDBLK
8
0
0
BLOCK
8
0
2
MCCB-2
70
0
10
0
20
0
30
0
3
MCCB-2
0
LINE
8
SYMBOL
10
-8
20
-8
30
0
11
8
21
8
31
0
0
ENDBLK
8
0
0
BLOCK
8
0
2
DB-1
70
0
10
0
20
0
30
0
3
DB-1
0
LINE
8
SYMBOL
10
-8
20
-8
30
0
11
8
21
8
31
0
0
ENDBLK
8
0
0
ENDSEC
0
SECTION
2
ENTITIES
0
INSERT
8
SYMBOL
2
TR-1
10
100
20
800
30
0
0
INSERT
8
SYMBOL
2
MCCB-1
10
100
20
600
30
0
0
INSERT
8
SYMBOL
2
MCCB-2
10
100
20
400
30
0
0
INSERT
8
SYMBOL
2
DB-1
10
100
20
200
30
0
0
LINE
8
WIRE
10
100
20
800
30
0
11
100
21
600
31
0
0
LINE
8
WIRE
10
100
20
600
30
0
11
100
21
400
31
0
0
LINE
8
WIRE
10
100
20
400
30
0
11
100
21
200
31
0
0
TEXT
8
TEXT
10
118
20
800
30
0
40
2.5
1
1000kVA
0
TEXT
8
TEXT
10
118
20
600
30
0
40
2.5
1
225AF/200AT
0
TEXT
8
TEXT
10
118
20
400
30
0
40
2.5
1
100AF/150AT
0
TEXT
8
TEXT
10
118
20
200
30
0
40
2.5
1
380V
0
TEXT
8
TEXT
10
190
20
500
30
0
40
2.5
1
F-CV 4C 95sq 포설: 전선관 주위온도 30°C 집합회로 1회로
0
TEXT
8
TEXT
10
190
20
300
30
0
40
2.5
1
F-CV 4C 16sq 포설: 전선관 주위온도 30°C 집합회로 1회로
0
ENDSEC
0
EOF
