0
SECTION
2
HEADER
9
$ACADVER
1
AC1009
9
$INSUNITS
70
4
0
ENDSEC
0
SECTION
2
BLOCKS
0
BLOCK
8
0
2
VCB-MX
70
0
10
0
20
0
30
0
3
VCB-MX
0
LINE
8
SYMBOL
10
-8
20
-8
30
0
11
8
21
8
31
0
0
ENDBLK
8
0
0
BLOCK
8
0
2
TR-MX
70
0
10
0
20
0
30
0
3
TR-MX
0
LINE
8
SYMBOL
10
-8
20
-8
30
0
11
8
21
8
31
0
0
ENDBLK
8
0
0
BLOCK
8
0
2
MCCB-MX1
70
0
10
0
20
0
30
0
3
MCCB-MX1
0
LINE
8
SYMBOL
10
-10
20
-10
30
0
11
10
21
10
31
0
0
ENDBLK
8
0
0
BLOCK
8
0
2
MCCB-MX2
70
0
10
0
20
0
30
0
3
MCCB-MX2
0
LINE
8
SYMBOL
10
-10
20
-10
30
0
11
10
21
10
31
0
0
ENDBLK
8
0
0
BLOCK
8
0
2
CUBICLE-MX
70
0
10
0
20
0
30
0
3
CUBICLE-MX
0
INSERT
8
SYMBOL
2
MCCB-MX1
10
-10
20
0
30
0
0
INSERT
8
SYMBOL
2
MCCB-MX2
10
10
20
0
30
0
0
ENDBLK
8
0
0
BLOCK
8
0
2
BUSBAR-MX
70
0
10
0
20
0
30
0
3
BUSBAR-MX
0
LINE
8
SYMBOL
10
-8
20
-8
30
0
11
8
21
8
31
0
0
ENDBLK
8
0
0
BLOCK
8
0
2
DB-MX1
70
0
10
0
20
0
30
0
3
DB-MX1
0
LINE
8
SYMBOL
10
-8
20
-8
30
0
11
8
21
8
31
0
0
ENDBLK
8
0
0
BLOCK
8
0
2
DB-MX2
70
0
10
0
20
0
30
0
3
DB-MX2
0
LINE
8
SYMBOL
10
-8
20
-8
30
0
11
8
21
8
31
0
0
ENDBLK
8
0
0
BLOCK
8
0
2
DB-MX3
70
0
10
0
20
0
30
0
3
DB-MX3
0
LINE
8
SYMBOL
10
-8
20
-8
30
0
11
8
21
8
31
0
0
ENDBLK
8
0
0
BLOCK
8
0
2
DB-MX4
70
0
10
0
20
0
30
0
3
DB-MX4
0
LINE
8
SYMBOL
10
-8
20
-8
30
0
11
8
21
8
31
0
0
ENDBLK
8
0
0
BLOCK
8
0
2
DB-MX5
70
0
10
0
20
0
30
0
3
DB-MX5
0
LINE
8
SYMBOL
10
-8
20
-8
30
0
11
8
21
8
31
0
0
ENDBLK
8
0
0
BLOCK
8
0
2
DB-MX6
70
0
10
0
20
0
30
0
3
DB-MX6
0
LINE
8
SYMBOL
10
-8
20
-8
30
0
11
8
21
8
31
0
0
ENDBLK
8
0
0
BLOCK
8
0
2
DB-MX7
70
0
10
0
20
0
30
0
3
DB-MX7
0
LINE
8
SYMBOL
10
-8
20
-8
30
0
11
8
21
8
31
0
0
ENDBLK
8
0
0
BLOCK
8
0
2
DB-MX8
70
0
10
0
20
0
30
0
3
DB-MX8
0
LINE
8
SYMBOL
10
-8
20
-8
30
0
11
8
21
8
31
0
0
ENDBLK
8
0
0
BLOCK
8
0
2
DB-MX9
70
0
10
0
20
0
30
0
3
DB-MX9
0
LINE
8
SYMBOL
10
-8
20
-8
30
0
11
8
21
8
31
0
0
ENDBLK
8
0
0
BLOCK
8
0
2
DB-MX10
70
0
10
0
20
0
30
0
3
DB-MX10
0
LINE
8
SYMBOL
10
-8
20
-8
30
0
11
8
21
8
31
0
0
ENDBLK
8
0
0
ENDSEC
0
SECTION
2
ENTITIES
0
INSERT
8
SYMBOL
2
VCB-MX
10
700
20
1200
30
0
0
INSERT
8
SYMBOL
2
TR-MX
10
700
20
1080
30
0
0
INSERT
8
SYMBOL
2
CUBICLE-MX
10
700
20
960
30
0
0
INSERT
8
SYMBOL
2
BUSBAR-MX
10
700
20
850
30
0
0
INSERT
8
SYMBOL
2
DB-MX1
10
160
20
700
30
0
0
CIRCLE
8
SYMBOL
10
160
20
570
30
0
40
18
0
TEXT
8
TEXT
10
182
20
570
30
0
40
2.5
1
MTR-MX1
0
INSERT
8
SYMBOL
2
DB-MX2
10
280
20
700
30
0
0
CIRCLE
8
SYMBOL
10
280
20
570
30
0
40
18
0
TEXT
8
TEXT
10
302
20
570
30
0
40
2.5
1
MTR-MX2
0
INSERT
8
SYMBOL
2
DB-MX3
10
400
20
700
30
0
0
CIRCLE
8
SYMBOL
10
400
20
570
30
0
40
18
0
TEXT
8
TEXT
10
422
20
570
30
0
40
2.5
1
MTR-MX3
0
INSERT
8
SYMBOL
2
DB-MX4
10
520
20
700
30
0
0
CIRCLE
8
SYMBOL
10
520
20
570
30
0
40
18
0
TEXT
8
TEXT
10
542
20
570
30
0
40
2.5
1
MTR-MX4
0
INSERT
8
SYMBOL
2
DB-MX5
10
640
20
700
30
0
0
CIRCLE
8
SYMBOL
10
640
20
570
30
0
40
18
0
TEXT
8
TEXT
10
662
20
570
30
0
40
2.5
1
MTR-MX5
0
INSERT
8
SYMBOL
2
DB-MX6
10
760
20
700
30
0
0
CIRCLE
8
SYMBOL
10
760
20
570
30
0
40
18
0
TEXT
8
TEXT
10
782
20
570
30
0
40
2.5
1
MTR-MX6
0
INSERT
8
SYMBOL
2
DB-MX7
10
880
20
700
30
0
0
CIRCLE
8
SYMBOL
10
880
20
570
30
0
40
18
0
TEXT
8
TEXT
10
902
20
570
30
0
40
2.5
1
MTR-MX7
0
INSERT
8
SYMBOL
2
DB-MX8
10
1000
20
700
30
0
0
CIRCLE
8
SYMBOL
10
1000
20
570
30
0
40
18
0
TEXT
8
TEXT
10
1022
20
570
30
0
40
2.5
1
MTR-MX8
0
INSERT
8
SYMBOL
2
DB-MX9
10
1120
20
700
30
0
0
CIRCLE
8
SYMBOL
10
1120
20
570
30
0
40
18
0
TEXT
8
TEXT
10
1142
20
570
30
0
40
2.5
1
MTR-MX9
0
INSERT
8
SYMBOL
2
DB-MX10
10
1240
20
700
30
0
0
CIRCLE
8
SYMBOL
10
1240
20
570
30
0
40
18
0
TEXT
8
TEXT
10
1262
20
570
30
0
40
2.5
1
MTR-MX10
0
LINE
8
WIRE
10
700
20
1200
30
0
11
700
21
1080
31
0
0
LINE
8
WIRE
10
700
20
1080
30
0
11
700
21
960
31
0
0
LINE
8
WIRE
10
700
20
960
30
0
11
700
21
850
31
0
0
LINE
8
WIRE
10
700
20
850
30
0
11
160
21
700
31
0
0
LINE
8
WIRE
10
160
20
700
30
0
11
160
21
570
31
0
0
LWPOLYLINE
8
WIRE
90
4
70
0
10
700
20
850
10
700
20
760
10
280
20
760
10
280
20
700
0
LINE
8
WIRE
10
280
20
700
30
0
11
280
21
570
31
0
0
LINE
8
WIRE
10
700
20
850
30
0
11
400
21
700
31
0
0
LINE
8
WIRE
10
400
20
700
30
0
11
400
21
570
31
0
0
LWPOLYLINE
8
WIRE
90
4
70
0
10
700
20
850
10
700
20
760
10
520
20
760
10
520
20
700
0
LINE
8
WIRE
10
520
20
700
30
0
11
520
21
570
31
0
0
LINE
8
WIRE
10
700
20
850
30
0
11
640
21
700
31
0
0
LINE
8
WIRE
10
640
20
700
30
0
11
640
21
570
31
0
0
LWPOLYLINE
8
WIRE
90
4
70
0
10
700
20
850
10
700
20
760
10
760
20
760
10
760
20
700
0
LINE
8
WIRE
10
760
20
700
30
0
11
760
21
570
31
0
0
LINE
8
WIRE
10
700
20
850
30
0
11
880
21
700
31
0
0
LINE
8
WIRE
10
880
20
700
30
0
11
880
21
570
31
0
0
LWPOLYLINE
8
WIRE
90
4
70
0
10
700
20
850
10
700
20
760
10
1000
20
760
10
1000
20
700
0
LINE
8
WIRE
10
1000
20
700
30
0
11
1000
21
570
31
0
0
LINE
8
WIRE
10
700
20
850
30
0
11
1120
21
700
31
0
0
LINE
8
WIRE
10
1120
20
700
30
0
11
1120
21
570
31
0
0
LWPOLYLINE
8
WIRE
90
4
70
0
10
700
20
850
10
700
20
760
10
1240
20
760
10
1240
20
700
0
LINE
8
WIRE
10
1240
20
700
30
0
11
1240
21
570
31
0
0
ARC
8
SYMBOL
10
60
20
1300
30
0
40
25
50
0
51
180
0
ENDSEC
0
EOF
