0
SECTION
2
HEADER
9
$ACADVER
1
AC1015
9
$INSUNITS
70
4
0
ENDSEC
0
SECTION
2
BLOCKS
0
BLOCK
8
0
2
VCB-INCOMING
70
0
10
0
20
0
30
0
3
VCB-INCOMING
0
LINE
8
SYMBOL
10
-8
20
-8
30
0
11
8
21
8
31
0
0
ENDBLK
8
0
0
BLOCK
8
0
2
MAINBUS
70
0
10
0
20
0
30
0
3
MAINBUS
0
LINE
8
SYMBOL
10
-8
20
-8
30
0
11
8
21
8
31
0
0
ENDBLK
8
0
0
BLOCK
8
0
2
TR-B1
70
0
10
0
20
0
30
0
3
TR-B1
0
LINE
8
SYMBOL
10
-8
20
-8
30
0
11
8
21
8
31
0
0
ENDBLK
8
0
0
BLOCK
8
0
2
ACB-B1
70
0
10
0
20
0
30
0
3
ACB-B1
0
LINE
8
SYMBOL
10
-8
20
-8
30
0
11
8
21
8
31
0
0
ENDBLK
8
0
0
BLOCK
8
0
2
BUSBAR-B1
70
0
10
0
20
0
30
0
3
BUSBAR-B1
0
LINE
8
SYMBOL
10
-8
20
-8
30
0
11
8
21
8
31
0
0
ENDBLK
8
0
0
BLOCK
8
0
2
MCC-B1F1
70
0
10
0
20
0
30
0
3
MCC-B1F1
0
LINE
8
SYMBOL
10
-8
20
-8
30
0
11
8
21
8
31
0
0
ENDBLK
8
0
0
BLOCK
8
0
2
MTR-B1F1M1
70
0
10
0
20
0
30
0
3
MTR-B1F1M1
0
LINE
8
SYMBOL
10
-8
20
-8
30
0
11
8
21
8
31
0
0
ENDBLK
8
0
0
BLOCK
8
0
2
MTR-B1F1M2
70
0
10
0
20
0
30
0
3
MTR-B1F1M2
0
LINE
8
SYMBOL
10
-8
20
-8
30
0
11
8
21
8
31
0
0
ENDBLK
8
0
0
BLOCK
8
0
2
MCC-B1F2
70
0
10
0
20
0
30
0
3
MCC-B1F2
0
LINE
8
SYMBOL
10
-8
20
-8
30
0
11
8
21
8
31
0
0
ENDBLK
8
0
0
BLOCK
8
0
2
MTR-B1F2M1
70
0
10
0
20
0
30
0
3
MTR-B1F2M1
0
LINE
8
SYMBOL
10
-8
20
-8
30
0
11
8
21
8
31
0
0
ENDBLK
8
0
0
BLOCK
8
0
2
MTR-B1F2M2
70
0
10
0
20
0
30
0
3
MTR-B1F2M2
0
LINE
8
SYMBOL
10
-8
20
-8
30
0
11
8
21
8
31
0
0
ENDBLK
8
0
0
BLOCK
8
0
2
MCC-B1F3
70
0
10
0
20
0
30
0
3
MCC-B1F3
0
LINE
8
SYMBOL
10
-8
20
-8
30
0
11
8
21
8
31
0
0
ENDBLK
8
0
0
BLOCK
8
0
2
MTR-B1F3M1
70
0
10
0
20
0
30
0
3
MTR-B1F3M1
0
LINE
8
SYMBOL
10
-8
20
-8
30
0
11
8
21
8
31
0
0
ENDBLK
8
0
0
BLOCK
8
0
2
MTR-B1F3M2
70
0
10
0
20
0
30
0
3
MTR-B1F3M2
0
LINE
8
SYMBOL
10
-8
20
-8
30
0
11
8
21
8
31
0
0
ENDBLK
8
0
0
BLOCK
8
0
2
MCC-B1F4
70
0
10
0
20
0
30
0
3
MCC-B1F4
0
LINE
8
SYMBOL
10
-8
20
-8
30
0
11
8
21
8
31
0
0
ENDBLK
8
0
0
BLOCK
8
0
2
MTR-B1F4M1
70
0
10
0
20
0
30
0
3
MTR-B1F4M1
0
LINE
8
SYMBOL
10
-8
20
-8
30
0
11
8
21
8
31
0
0
ENDBLK
8
0
0
BLOCK
8
0
2
MTR-B1F4M2
70
0
10
0
20
0
30
0
3
MTR-B1F4M2
0
LINE
8
SYMBOL
10
-8
20
-8
30
0
11
8
21
8
31
0
0
ENDBLK
8
0
0
BLOCK
8
0
2
MCC-B1F5
70
0
10
0
20
0
30
0
3
MCC-B1F5
0
LINE
8
SYMBOL
10
-8
20
-8
30
0
11
8
21
8
31
0
0
ENDBLK
8
0
0
BLOCK
8
0
2
MTR-B1F5M1
70
0
10
0
20
0
30
0
3
MTR-B1F5M1
0
LINE
8
SYMBOL
10
-8
20
-8
30
0
11
8
21
8
31
0
0
ENDBLK
8
0
0
BLOCK
8
0
2
MTR-B1F5M2
70
0
10
0
20
0
30
0
3
MTR-B1F5M2
0
LINE
8
SYMBOL
10
-8
20
-8
30
0
11
8
21
8
31
0
0
ENDBLK
8
0
0
BLOCK
8
0
2
MCC-B1F6
70
0
10
0
20
0
30
0
3
MCC-B1F6
0
LINE
8
SYMBOL
10
-8
20
-8
30
0
11
8
21
8
31
0
0
ENDBLK
8
0
0
BLOCK
8
0
2
MTR-B1F6M1
70
0
10
0
20
0
30
0
3
MTR-B1F6M1
0
LINE
8
SYMBOL
10
-8
20
-8
30
0
11
8
21
8
31
0
0
ENDBLK
8
0
0
BLOCK
8
0
2
MTR-B1F6M2
70
0
10
0
20
0
30
0
3
MTR-B1F6M2
0
LINE
8
SYMBOL
10
-8
20
-8
30
0
11
8
21
8
31
0
0
ENDBLK
8
0
0
BLOCK
8
0
2
TR-B2
70
0
10
0
20
0
30
0
3
TR-B2
0
LINE
8
SYMBOL
10
-8
20
-8
30
0
11
8
21
8
31
0
0
ENDBLK
8
0
0
BLOCK
8
0
2
ACB-B2
70
0
10
0
20
0
30
0
3
ACB-B2
0
LINE
8
SYMBOL
10
-8
20
-8
30
0
11
8
21
8
31
0
0
ENDBLK
8
0
0
BLOCK
8
0
2
BUSBAR-B2
70
0
10
0
20
0
30
0
3
BUSBAR-B2
0
LINE
8
SYMBOL
10
-8
20
-8
30
0
11
8
21
8
31
0
0
ENDBLK
8
0
0
BLOCK
8
0
2
MCC-B2F1
70
0
10
0
20
0
30
0
3
MCC-B2F1
0
LINE
8
SYMBOL
10
-8
20
-8
30
0
11
8
21
8
31
0
0
ENDBLK
8
0
0
BLOCK
8
0
2
MTR-B2F1M1
70
0
10
0
20
0
30
0
3
MTR-B2F1M1
0
LINE
8
SYMBOL
10
-8
20
-8
30
0
11
8
21
8
31
0
0
ENDBLK
8
0
0
BLOCK
8
0
2
MTR-B2F1M2
70
0
10
0
20
0
30
0
3
MTR-B2F1M2
0
LINE
8
SYMBOL
10
-8
20
-8
30
0
11
8
21
8
31
0
0
ENDBLK
8
0
0
BLOCK
8
0
2
MCC-B2F2
70
0
10
0
20
0
30
0
3
MCC-B2F2
0
LINE
8
SYMBOL
10
-8
20
-8
30
0
11
8
21
8
31
0
0
ENDBLK
8
0
0
BLOCK
8
0
2
MTR-B2F2M1
70
0
10
0
20
0
30
0
3
MTR-B2F2M1
0
LINE
8
SYMBOL
10
-8
20
-8
30
0
11
8
21
8
31
0
0
ENDBLK
8
0
0
BLOCK
8
0
2
MTR-B2F2M2
70
0
10
0
20
0
30
0
3
MTR-B2F2M2
0
LINE
8
SYMBOL
10
-8
20
-8
30
0
11
8
21
8
31
0
0
ENDBLK
8
0
0
BLOCK
8
0
2
MCC-B2F3
70
0
10
0
20
0
30
0
3
MCC-B2F3
0
LINE
8
SYMBOL
10
-8
20
-8
30
0
11
8
21
8
31
0
0
ENDBLK
8
0
0
BLOCK
8
0
2
MTR-B2F3M1
70
0
10
0
20
0
30
0
3
MTR-B2F3M1
0
LINE
8
SYMBOL
10
-8
20
-8
30
0
11
8
21
8
31
0
0
ENDBLK
8
0
0
BLOCK
8
0
2
MTR-B2F3M2
70
0
10
0
20
0
30
0
3
MTR-B2F3M2
0
LINE
8
SYMBOL
10
-8
20
-8
30
0
11
8
21
8
31
0
0
ENDBLK
8
0
0
BLOCK
8
0
2
MCC-B2F4
70
0
10
0
20
0
30
0
3
MCC-B2F4
0
LINE
8
SYMBOL
10
-8
20
-8
30
0
11
8
21
8
31
0
0
ENDBLK
8
0
0
BLOCK
8
0
2
MTR-B2F4M1
70
0
10
0
20
0
30
0
3
MTR-B2F4M1
0
LINE
8
SYMBOL
10
-8
20
-8
30
0
11
8
21
8
31
0
0
ENDBLK
8
0
0
BLOCK
8
0
2
MTR-B2F4M2
70
0
10
0
20
0
30
0
3
MTR-B2F4M2
0
LINE
8
SYMBOL
10
-8
20
-8
30
0
11
8
21
8
31
0
0
ENDBLK
8
0
0
BLOCK
8
0
2
MCC-B2F5
70
0
10
0
20
0
30
0
3
MCC-B2F5
0
LINE
8
SYMBOL
10
-8
20
-8
30
0
11
8
21
8
31
0
0
ENDBLK
8
0
0
BLOCK
8
0
2
MTR-B2F5M1
70
0
10
0
20
0
30
0
3
MTR-B2F5M1
0
LINE
8
SYMBOL
10
-8
20
-8
30
0
11
8
21
8
31
0
0
ENDBLK
8
0
0
BLOCK
8
0
2
MTR-B2F5M2
70
0
10
0
20
0
30
0
3
MTR-B2F5M2
0
LINE
8
SYMBOL
10
-8
20
-8
30
0
11
8
21
8
31
0
0
ENDBLK
8
0
0
BLOCK
8
0
2
MCC-B2F6
70
0
10
0
20
0
30
0
3
MCC-B2F6
0
LINE
8
SYMBOL
10
-8
20
-8
30
0
11
8
21
8
31
0
0
ENDBLK
8
0
0
BLOCK
8
0
2
MTR-B2F6M1
70
0
10
0
20
0
30
0
3
MTR-B2F6M1
0
LINE
8
SYMBOL
10
-8
20
-8
30
0
11
8
21
8
31
0
0
ENDBLK
8
0
0
BLOCK
8
0
2
MTR-B2F6M2
70
0
10
0
20
0
30
0
3
MTR-B2F6M2
0
LINE
8
SYMBOL
10
-8
20
-8
30
0
11
8
21
8
31
0
0
ENDBLK
8
0
0
ENDSEC
0
SECTION
2
ENTITIES
0
INSERT
8
SYMBOL
2
VCB-INCOMING
10
1000
20
1400
30
0
0
INSERT
8
SYMBOL
2
MAINBUS
10
1000
20
1300
30
0
0
INSERT
8
SYMBOL
2
TR-B1
10
400
20
1150
30
0
0
INSERT
8
SYMBOL
2
ACB-B1
10
400
20
1030
30
0
0
INSERT
8
SYMBOL
2
BUSBAR-B1
10
400
20
910
30
0
0
INSERT
8
SYMBOL
2
MCC-B1F1
10
0
20
760
30
0
0
INSERT
8
SYMBOL
2
MTR-B1F1M1
10
-40
20
620
30
0
0
INSERT
8
SYMBOL
2
MTR-B1F1M2
10
40
20
620
30
0
0
INSERT
8
SYMBOL
2
MCC-B1F2
10
160
20
760
30
0
0
INSERT
8
SYMBOL
2
MTR-B1F2M1
10
120
20
620
30
0
0
INSERT
8
SYMBOL
2
MTR-B1F2M2
10
200
20
620
30
0
0
INSERT
8
SYMBOL
2
MCC-B1F3
10
320
20
760
30
0
0
INSERT
8
SYMBOL
2
MTR-B1F3M1
10
280
20
620
30
0
0
INSERT
8
SYMBOL
2
MTR-B1F3M2
10
360
20
620
30
0
0
INSERT
8
SYMBOL
2
MCC-B1F4
10
480
20
760
30
0
0
INSERT
8
SYMBOL
2
MTR-B1F4M1
10
440
20
620
30
0
0
INSERT
8
SYMBOL
2
MTR-B1F4M2
10
520
20
620
30
0
0
INSERT
8
SYMBOL
2
MCC-B1F5
10
640
20
760
30
0
0
INSERT
8
SYMBOL
2
MTR-B1F5M1
10
600
20
620
30
0
0
INSERT
8
SYMBOL
2
MTR-B1F5M2
10
680
20
620
30
0
0
INSERT
8
SYMBOL
2
MCC-B1F6
10
800
20
760
30
0
0
INSERT
8
SYMBOL
2
MTR-B1F6M1
10
760
20
620
30
0
0
INSERT
8
SYMBOL
2
MTR-B1F6M2
10
840
20
620
30
0
0
INSERT
8
SYMBOL
2
TR-B2
10
1600
20
1150
30
0
0
INSERT
8
SYMBOL
2
ACB-B2
10
1600
20
1030
30
0
0
INSERT
8
SYMBOL
2
BUSBAR-B2
10
1600
20
910
30
0
0
INSERT
8
SYMBOL
2
MCC-B2F1
10
1200
20
760
30
0
0
INSERT
8
SYMBOL
2
MTR-B2F1M1
10
1160
20
620
30
0
0
INSERT
8
SYMBOL
2
MTR-B2F1M2
10
1240
20
620
30
0
0
INSERT
8
SYMBOL
2
MCC-B2F2
10
1360
20
760
30
0
0
INSERT
8
SYMBOL
2
MTR-B2F2M1
10
1320
20
620
30
0
0
INSERT
8
SYMBOL
2
MTR-B2F2M2
10
1400
20
620
30
0
0
INSERT
8
SYMBOL
2
MCC-B2F3
10
1520
20
760
30
0
0
INSERT
8
SYMBOL
2
MTR-B2F3M1
10
1480
20
620
30
0
0
INSERT
8
SYMBOL
2
MTR-B2F3M2
10
1560
20
620
30
0
0
INSERT
8
SYMBOL
2
MCC-B2F4
10
1680
20
760
30
0
0
INSERT
8
SYMBOL
2
MTR-B2F4M1
10
1640
20
620
30
0
0
INSERT
8
SYMBOL
2
MTR-B2F4M2
10
1720
20
620
30
0
0
INSERT
8
SYMBOL
2
MCC-B2F5
10
1840
20
760
30
0
0
INSERT
8
SYMBOL
2
MTR-B2F5M1
10
1800
20
620
30
0
0
INSERT
8
SYMBOL
2
MTR-B2F5M2
10
1880
20
620
30
0
0
INSERT
8
SYMBOL
2
MCC-B2F6
10
2000
20
760
30
0
0
INSERT
8
SYMBOL
2
MTR-B2F6M1
10
1960
20
620
30
0
0
INSERT
8
SYMBOL
2
MTR-B2F6M2
10
2040
20
620
30
0
0
LINE
8
WIRE
10
1000
20
1400
30
0
11
1000
21
1300
31
0
0
LINE
8
WIRE
10
1000
20
1300
30
0
11
400
21
1150
31
0
0
LINE
8
WIRE
10
400
20
1150
30
0
11
400
21
1030
31
0
0
LINE
8
WIRE
10
400
20
1030
30
0
11
400
21
910
31
0
0
LINE
8
WIRE
10
400
20
910
30
0
11
0
21
760
31
0
0
LINE
8
WIRE
10
0
20
760
30
0
11
-40
21
620
31
0
0
LINE
8
WIRE
10
0
20
760
30
0
11
40
21
620
31
0
0
LINE
8
WIRE
10
400
20
910
30
0
11
160
21
760
31
0
0
LINE
8
WIRE
10
160
20
760
30
0
11
120
21
620
31
0
0
LINE
8
WIRE
10
160
20
760
30
0
11
200
21
620
31
0
0
LINE
8
WIRE
10
400
20
910
30
0
11
320
21
760
31
0
0
LINE
8
WIRE
10
320
20
760
30
0
11
280
21
620
31
0
0
LINE
8
WIRE
10
320
20
760
30
0
11
360
21
620
31
0
0
LINE
8
WIRE
10
400
20
910
30
0
11
480
21
760
31
0
0
LINE
8
WIRE
10
480
20
760
30
0
11
440
21
620
31
0
0
LINE
8
WIRE
10
480
20
760
30
0
11
520
21
620
31
0
0
LINE
8
WIRE
10
400
20
910
30
0
11
640
21
760
31
0
0
LINE
8
WIRE
10
640
20
760
30
0
11
600
21
620
31
0
0
LINE
8
WIRE
10
640
20
760
30
0
11
680
21
620
31
0
0
LINE
8
WIRE
10
400
20
910
30
0
11
800
21
760
31
0
0
LINE
8
WIRE
10
800
20
760
30
0
11
760
21
620
31
0
0
LINE
8
WIRE
10
800
20
760
30
0
11
840
21
620
31
0
0
LINE
8
WIRE
10
1000
20
1300
30
0
11
1600
21
1150
31
0
0
LINE
8
WIRE
10
1600
20
1150
30
0
11
1600
21
1030
31
0
0
LINE
8
WIRE
10
1600
20
1030
30
0
11
1600
21
910
31
0
0
LINE
8
WIRE
10
1600
20
910
30
0
11
1200
21
760
31
0
0
LINE
8
WIRE
10
1200
20
760
30
0
11
1160
21
620
31
0
0
LINE
8
WIRE
10
1200
20
760
30
0
11
1240
21
620
31
0
0
LINE
8
WIRE
10
1600
20
910
30
0
11
1360
21
760
31
0
0
LINE
8
WIRE
10
1360
20
760
30
0
11
1320
21
620
31
0
0
LINE
8
WIRE
10
1360
20
760
30
0
11
1400
21
620
31
0
0
LINE
8
WIRE
10
1600
20
910
30
0
11
1520
21
760
31
0
0
LINE
8
WIRE
10
1520
20
760
30
0
11
1480
21
620
31
0
0
LINE
8
WIRE
10
1520
20
760
30
0
11
1560
21
620
31
0
0
LINE
8
WIRE
10
1600
20
910
30
0
11
1680
21
760
31
0
0
LINE
8
WIRE
10
1680
20
760
30
0
11
1640
21
620
31
0
0
LINE
8
WIRE
10
1680
20
760
30
0
11
1720
21
620
31
0
0
LINE
8
WIRE
10
1600
20
910
30
0
11
1840
21
760
31
0
0
LINE
8
WIRE
10
1840
20
760
30
0
11
1800
21
620
31
0
0
LINE
8
WIRE
10
1840
20
760
30
0
11
1880
21
620
31
0
0
LINE
8
WIRE
10
1600
20
910
30
0
11
2000
21
760
31
0
0
LINE
8
WIRE
10
2000
20
760
30
0
11
1960
21
620
31
0
0
LINE
8
WIRE
10
2000
20
760
30
0
11
2040
21
620
31
0
0
ENDSEC
0
EOF
