0
SECTION
2
HEADER
9
$ACADVER
1
AC1015
9
$INSUNITS
70
4
0
ENDSEC
0
SECTION
2
BLOCKS
0
BLOCK
8
0
2
BUSBAR-MAIN
70
0
10
0
20
0
30
0
3
BUSBAR-MAIN
0
LINE
8
SYMBOL
10
-8
20
-8
30
0
11
8
21
8
31
0
0
ENDBLK
8
0
0
BLOCK
8
0
2
MCC-P1
70
0
10
0
20
0
30
0
3
MCC-P1
0
LINE
8
SYMBOL
10
-8
20
-8
30
0
11
8
21
8
31
0
0
ENDBLK
8
0
0
BLOCK
8
0
2
MTR-P1M1
70
0
10
0
20
0
30
0
3
MTR-P1M1
0
LINE
8
SYMBOL
10
-8
20
-8
30
0
11
8
21
8
31
0
0
ENDBLK
8
0
0
BLOCK
8
0
2
MTR-P1M2
70
0
10
0
20
0
30
0
3
MTR-P1M2
0
LINE
8
SYMBOL
10
-8
20
-8
30
0
11
8
21
8
31
0
0
ENDBLK
8
0
0
BLOCK
8
0
2
MTR-P1M3
70
0
10
0
20
0
30
0
3
MTR-P1M3
0
LINE
8
SYMBOL
10
-8
20
-8
30
0
11
8
21
8
31
0
0
ENDBLK
8
0
0
BLOCK
8
0
2
MTR-P1M4
70
0
10
0
20
0
30
0
3
MTR-P1M4
0
LINE
8
SYMBOL
10
-8
20
-8
30
0
11
8
21
8
31
0
0
ENDBLK
8
0
0
BLOCK
8
0
2
MTR-P1M5
70
0
10
0
20
0
30
0
3
MTR-P1M5
0
LINE
8
SYMBOL
10
-8
20
-8
30
0
11
8
21
8
31
0
0
ENDBLK
8
0
0
BLOCK
8
0
2
MTR-P1M6
70
0
10
0
20
0
30
0
3
MTR-P1M6
0
LINE
8
SYMBOL
10
-8
20
-8
30
0
11
8
21
8
31
0
0
ENDBLK
8
0
0
BLOCK
8
0
2
MTR-P1M7
70
0
10
0
20
0
30
0
3
MTR-P1M7
0
LINE
8
SYMBOL
10
-8
20
-8
30
0
11
8
21
8
31
0
0
ENDBLK
8
0
0
BLOCK
8
0
2
MTR-P1M8
70
0
10
0
20
0
30
0
3
MTR-P1M8
0
LINE
8
SYMBOL
10
-8
20
-8
30
0
11
8
21
8
31
0
0
ENDBLK
8
0
0
BLOCK
8
0
2
MCC-P2
70
0
10
0
20
0
30
0
3
MCC-P2
0
LINE
8
SYMBOL
10
-8
20
-8
30
0
11
8
21
8
31
0
0
ENDBLK
8
0
0
BLOCK
8
0
2
MTR-P2M1
70
0
10
0
20
0
30
0
3
MTR-P2M1
0
LINE
8
SYMBOL
10
-8
20
-8
30
0
11
8
21
8
31
0
0
ENDBLK
8
0
0
BLOCK
8
0
2
MTR-P2M2
70
0
10
0
20
0
30
0
3
MTR-P2M2
0
LINE
8
SYMBOL
10
-8
20
-8
30
0
11
8
21
8
31
0
0
ENDBLK
8
0
0
BLOCK
8
0
2
MTR-P2M3
70
0
10
0
20
0
30
0
3
MTR-P2M3
0
LINE
8
SYMBOL
10
-8
20
-8
30
0
11
8
21
8
31
0
0
ENDBLK
8
0
0
BLOCK
8
0
2
MTR-P2M4
70
0
10
0
20
0
30
0
3
MTR-P2M4
0
LINE
8
SYMBOL
10
-8
20
-8
30
0
11
8
21
8
31
0
0
ENDBLK
8
0
0
BLOCK
8
0
2
MTR-P2M5
70
0
10
0
20
0
30
0
3
MTR-P2M5
0
LINE
8
SYMBOL
10
-8
20
-8
30
0
11
8
21
8
31
0
0
ENDBLK
8
0
0
BLOCK
8
0
2
MTR-P2M6
70
0
10
0
20
0
30
0
3
MTR-P2M6
0
LINE
8
SYMBOL
10
-8
20
-8
30
0
11
8
21
8
31
0
0
ENDBLK
8
0
0
BLOCK
8
0
2
MTR-P2M7
70
0
10
0
20
0
30
0
3
MTR-P2M7
0
LINE
8
SYMBOL
10
-8
20
-8
30
0
11
8
21
8
31
0
0
ENDBLK
8
0
0
BLOCK
8
0
2
MTR-P2M8
70
0
10
0
20
0
30
0
3
MTR-P2M8
0
LINE
8
SYMBOL
10
-8
20
-8
30
0
11
8
21
8
31
0
0
ENDBLK
8
0
0
BLOCK
8
0
2
MCC-P3
70
0
10
0
20
0
30
0
3
MCC-P3
0
LINE
8
SYMBOL
10
-8
20
-8
30
0
11
8
21
8
31
0
0
ENDBLK
8
0
0
BLOCK
8
0
2
MTR-P3M1
70
0
10
0
20
0
30
0
3
MTR-P3M1
0
LINE
8
SYMBOL
10
-8
20
-8
30
0
11
8
21
8
31
0
0
ENDBLK
8
0
0
BLOCK
8
0
2
MTR-P3M2
70
0
10
0
20
0
30
0
3
MTR-P3M2
0
LINE
8
SYMBOL
10
-8
20
-8
30
0
11
8
21
8
31
0
0
ENDBLK
8
0
0
BLOCK
8
0
2
MTR-P3M3
70
0
10
0
20
0
30
0
3
MTR-P3M3
0
LINE
8
SYMBOL
10
-8
20
-8
30
0
11
8
21
8
31
0
0
ENDBLK
8
0
0
BLOCK
8
0
2
MTR-P3M4
70
0
10
0
20
0
30
0
3
MTR-P3M4
0
LINE
8
SYMBOL
10
-8
20
-8
30
0
11
8
21
8
31
0
0
ENDBLK
8
0
0
BLOCK
8
0
2
MTR-P3M5
70
0
10
0
20
0
30
0
3
MTR-P3M5
0
LINE
8
SYMBOL
10
-8
20
-8
30
0
11
8
21
8
31
0
0
ENDBLK
8
0
0
BLOCK
8
0
2
MTR-P3M6
70
0
10
0
20
0
30
0
3
MTR-P3M6
0
LINE
8
SYMBOL
10
-8
20
-8
30
0
11
8
21
8
31
0
0
ENDBLK
8
0
0
BLOCK
8
0
2
MTR-P3M7
70
0
10
0
20
0
30
0
3
MTR-P3M7
0
LINE
8
SYMBOL
10
-8
20
-8
30
0
11
8
21
8
31
0
0
ENDBLK
8
0
0
BLOCK
8
0
2
MTR-P3M8
70
0
10
0
20
0
30
0
3
MTR-P3M8
0
LINE
8
SYMBOL
10
-8
20
-8
30
0
11
8
21
8
31
0
0
ENDBLK
8
0
0
BLOCK
8
0
2
MCC-P4
70
0
10
0
20
0
30
0
3
MCC-P4
0
LINE
8
SYMBOL
10
-8
20
-8
30
0
11
8
21
8
31
0
0
ENDBLK
8
0
0
BLOCK
8
0
2
MTR-P4M1
70
0
10
0
20
0
30
0
3
MTR-P4M1
0
LINE
8
SYMBOL
10
-8
20
-8
30
0
11
8
21
8
31
0
0
ENDBLK
8
0
0
BLOCK
8
0
2
MTR-P4M2
70
0
10
0
20
0
30
0
3
MTR-P4M2
0
LINE
8
SYMBOL
10
-8
20
-8
30
0
11
8
21
8
31
0
0
ENDBLK
8
0
0
BLOCK
8
0
2
MTR-P4M3
70
0
10
0
20
0
30
0
3
MTR-P4M3
0
LINE
8
SYMBOL
10
-8
20
-8
30
0
11
8
21
8
31
0
0
ENDBLK
8
0
0
BLOCK
8
0
2
MTR-P4M4
70
0
10
0
20
0
30
0
3
MTR-P4M4
0
LINE
8
SYMBOL
10
-8
20
-8
30
0
11
8
21
8
31
0
0
ENDBLK
8
0
0
BLOCK
8
0
2
MTR-P4M5
70
0
10
0
20
0
30
0
3
MTR-P4M5
0
LINE
8
SYMBOL
10
-8
20
-8
30
0
11
8
21
8
31
0
0
ENDBLK
8
0
0
BLOCK
8
0
2
MTR-P4M6
70
0
10
0
20
0
30
0
3
MTR-P4M6
0
LINE
8
SYMBOL
10
-8
20
-8
30
0
11
8
21
8
31
0
0
ENDBLK
8
0
0
BLOCK
8
0
2
MTR-P4M7
70
0
10
0
20
0
30
0
3
MTR-P4M7
0
LINE
8
SYMBOL
10
-8
20
-8
30
0
11
8
21
8
31
0
0
ENDBLK
8
0
0
BLOCK
8
0
2
MTR-P4M8
70
0
10
0
20
0
30
0
3
MTR-P4M8
0
LINE
8
SYMBOL
10
-8
20
-8
30
0
11
8
21
8
31
0
0
ENDBLK
8
0
0
BLOCK
8
0
2
MCC-P5
70
0
10
0
20
0
30
0
3
MCC-P5
0
LINE
8
SYMBOL
10
-8
20
-8
30
0
11
8
21
8
31
0
0
ENDBLK
8
0
0
BLOCK
8
0
2
MTR-P5M1
70
0
10
0
20
0
30
0
3
MTR-P5M1
0
LINE
8
SYMBOL
10
-8
20
-8
30
0
11
8
21
8
31
0
0
ENDBLK
8
0
0
BLOCK
8
0
2
MTR-P5M2
70
0
10
0
20
0
30
0
3
MTR-P5M2
0
LINE
8
SYMBOL
10
-8
20
-8
30
0
11
8
21
8
31
0
0
ENDBLK
8
0
0
BLOCK
8
0
2
MTR-P5M3
70
0
10
0
20
0
30
0
3
MTR-P5M3
0
LINE
8
SYMBOL
10
-8
20
-8
30
0
11
8
21
8
31
0
0
ENDBLK
8
0
0
BLOCK
8
0
2
MTR-P5M4
70
0
10
0
20
0
30
0
3
MTR-P5M4
0
LINE
8
SYMBOL
10
-8
20
-8
30
0
11
8
21
8
31
0
0
ENDBLK
8
0
0
BLOCK
8
0
2
MTR-P5M5
70
0
10
0
20
0
30
0
3
MTR-P5M5
0
LINE
8
SYMBOL
10
-8
20
-8
30
0
11
8
21
8
31
0
0
ENDBLK
8
0
0
BLOCK
8
0
2
MTR-P5M6
70
0
10
0
20
0
30
0
3
MTR-P5M6
0
LINE
8
SYMBOL
10
-8
20
-8
30
0
11
8
21
8
31
0
0
ENDBLK
8
0
0
BLOCK
8
0
2
MTR-P5M7
70
0
10
0
20
0
30
0
3
MTR-P5M7
0
LINE
8
SYMBOL
10
-8
20
-8
30
0
11
8
21
8
31
0
0
ENDBLK
8
0
0
BLOCK
8
0
2
MTR-P5M8
70
0
10
0
20
0
30
0
3
MTR-P5M8
0
LINE
8
SYMBOL
10
-8
20
-8
30
0
11
8
21
8
31
0
0
ENDBLK
8
0
0
BLOCK
8
0
2
MCC-P6
70
0
10
0
20
0
30
0
3
MCC-P6
0
LINE
8
SYMBOL
10
-8
20
-8
30
0
11
8
21
8
31
0
0
ENDBLK
8
0
0
BLOCK
8
0
2
MTR-P6M1
70
0
10
0
20
0
30
0
3
MTR-P6M1
0
LINE
8
SYMBOL
10
-8
20
-8
30
0
11
8
21
8
31
0
0
ENDBLK
8
0
0
BLOCK
8
0
2
MTR-P6M2
70
0
10
0
20
0
30
0
3
MTR-P6M2
0
LINE
8
SYMBOL
10
-8
20
-8
30
0
11
8
21
8
31
0
0
ENDBLK
8
0
0
BLOCK
8
0
2
MTR-P6M3
70
0
10
0
20
0
30
0
3
MTR-P6M3
0
LINE
8
SYMBOL
10
-8
20
-8
30
0
11
8
21
8
31
0
0
ENDBLK
8
0
0
BLOCK
8
0
2
MTR-P6M4
70
0
10
0
20
0
30
0
3
MTR-P6M4
0
LINE
8
SYMBOL
10
-8
20
-8
30
0
11
8
21
8
31
0
0
ENDBLK
8
0
0
BLOCK
8
0
2
MTR-P6M5
70
0
10
0
20
0
30
0
3
MTR-P6M5
0
LINE
8
SYMBOL
10
-8
20
-8
30
0
11
8
21
8
31
0
0
ENDBLK
8
0
0
BLOCK
8
0
2
MTR-P6M6
70
0
10
0
20
0
30
0
3
MTR-P6M6
0
LINE
8
SYMBOL
10
-8
20
-8
30
0
11
8
21
8
31
0
0
ENDBLK
8
0
0
BLOCK
8
0
2
MTR-P6M7
70
0
10
0
20
0
30
0
3
MTR-P6M7
0
LINE
8
SYMBOL
10
-8
20
-8
30
0
11
8
21
8
31
0
0
ENDBLK
8
0
0
BLOCK
8
0
2
MTR-P6M8
70
0
10
0
20
0
30
0
3
MTR-P6M8
0
LINE
8
SYMBOL
10
-8
20
-8
30
0
11
8
21
8
31
0
0
ENDBLK
8
0
0
ENDSEC
0
SECTION
2
ENTITIES
0
INSERT
8
SYMBOL
2
BUSBAR-MAIN
10
900
20
1100
30
0
0
INSERT
8
SYMBOL
2
MCC-P1
10
200
20
950
30
0
0
INSERT
8
SYMBOL
2
MTR-P1M1
10
95
20
820
30
0
0
INSERT
8
SYMBOL
2
MTR-P1M2
10
165
20
820
30
0
0
INSERT
8
SYMBOL
2
MTR-P1M3
10
235
20
820
30
0
0
INSERT
8
SYMBOL
2
MTR-P1M4
10
305
20
820
30
0
0
INSERT
8
SYMBOL
2
MTR-P1M5
10
95
20
730
30
0
0
INSERT
8
SYMBOL
2
MTR-P1M6
10
165
20
730
30
0
0
INSERT
8
SYMBOL
2
MTR-P1M7
10
235
20
730
30
0
0
INSERT
8
SYMBOL
2
MTR-P1M8
10
305
20
730
30
0
0
INSERT
8
SYMBOL
2
MCC-P2
10
480
20
950
30
0
0
INSERT
8
SYMBOL
2
MTR-P2M1
10
375
20
820
30
0
0
INSERT
8
SYMBOL
2
MTR-P2M2
10
445
20
820
30
0
0
INSERT
8
SYMBOL
2
MTR-P2M3
10
515
20
820
30
0
0
INSERT
8
SYMBOL
2
MTR-P2M4
10
585
20
820
30
0
0
INSERT
8
SYMBOL
2
MTR-P2M5
10
375
20
730
30
0
0
INSERT
8
SYMBOL
2
MTR-P2M6
10
445
20
730
30
0
0
INSERT
8
SYMBOL
2
MTR-P2M7
10
515
20
730
30
0
0
INSERT
8
SYMBOL
2
MTR-P2M8
10
585
20
730
30
0
0
INSERT
8
SYMBOL
2
MCC-P3
10
760
20
950
30
0
0
INSERT
8
SYMBOL
2
MTR-P3M1
10
655
20
820
30
0
0
INSERT
8
SYMBOL
2
MTR-P3M2
10
725
20
820
30
0
0
INSERT
8
SYMBOL
2
MTR-P3M3
10
795
20
820
30
0
0
INSERT
8
SYMBOL
2
MTR-P3M4
10
865
20
820
30
0
0
INSERT
8
SYMBOL
2
MTR-P3M5
10
655
20
730
30
0
0
INSERT
8
SYMBOL
2
MTR-P3M6
10
725
20
730
30
0
0
INSERT
8
SYMBOL
2
MTR-P3M7
10
795
20
730
30
0
0
INSERT
8
SYMBOL
2
MTR-P3M8
10
865
20
730
30
0
0
INSERT
8
SYMBOL
2
MCC-P4
10
1040
20
950
30
0
0
INSERT
8
SYMBOL
2
MTR-P4M1
10
935
20
820
30
0
0
INSERT
8
SYMBOL
2
MTR-P4M2
10
1005
20
820
30
0
0
INSERT
8
SYMBOL
2
MTR-P4M3
10
1075
20
820
30
0
0
INSERT
8
SYMBOL
2
MTR-P4M4
10
1145
20
820
30
0
0
INSERT
8
SYMBOL
2
MTR-P4M5
10
935
20
730
30
0
0
INSERT
8
SYMBOL
2
MTR-P4M6
10
1005
20
730
30
0
0
INSERT
8
SYMBOL
2
MTR-P4M7
10
1075
20
730
30
0
0
INSERT
8
SYMBOL
2
MTR-P4M8
10
1145
20
730
30
0
0
INSERT
8
SYMBOL
2
MCC-P5
10
1320
20
950
30
0
0
INSERT
8
SYMBOL
2
MTR-P5M1
10
1215
20
820
30
0
0
INSERT
8
SYMBOL
2
MTR-P5M2
10
1285
20
820
30
0
0
INSERT
8
SYMBOL
2
MTR-P5M3
10
1355
20
820
30
0
0
INSERT
8
SYMBOL
2
MTR-P5M4
10
1425
20
820
30
0
0
INSERT
8
SYMBOL
2
MTR-P5M5
10
1215
20
730
30
0
0
INSERT
8
SYMBOL
2
MTR-P5M6
10
1285
20
730
30
0
0
INSERT
8
SYMBOL
2
MTR-P5M7
10
1355
20
730
30
0
0
INSERT
8
SYMBOL
2
MTR-P5M8
10
1425
20
730
30
0
0
INSERT
8
SYMBOL
2
MCC-P6
10
1600
20
950
30
0
0
INSERT
8
SYMBOL
2
MTR-P6M1
10
1495
20
820
30
0
0
INSERT
8
SYMBOL
2
MTR-P6M2
10
1565
20
820
30
0
0
INSERT
8
SYMBOL
2
MTR-P6M3
10
1635
20
820
30
0
0
INSERT
8
SYMBOL
2
MTR-P6M4
10
1705
20
820
30
0
0
INSERT
8
SYMBOL
2
MTR-P6M5
10
1495
20
730
30
0
0
INSERT
8
SYMBOL
2
MTR-P6M6
10
1565
20
730
30
0
0
INSERT
8
SYMBOL
2
MTR-P6M7
10
1635
20
730
30
0
0
INSERT
8
SYMBOL
2
MTR-P6M8
10
1705
20
730
30
0
0
LINE
8
WIRE
10
900
20
1100
30
0
11
200
21
950
31
0
0
LINE
8
WIRE
10
200
20
950
30
0
11
95
21
820
31
0
0
LINE
8
WIRE
10
200
20
950
30
0
11
165
21
820
31
0
0
LINE
8
WIRE
10
200
20
950
30
0
11
235
21
820
31
0
0
LINE
8
WIRE
10
200
20
950
30
0
11
305
21
820
31
0
0
LINE
8
WIRE
10
200
20
950
30
0
11
95
21
730
31
0
0
LINE
8
WIRE
10
200
20
950
30
0
11
165
21
730
31
0
0
LINE
8
WIRE
10
200
20
950
30
0
11
235
21
730
31
0
0
LINE
8
WIRE
10
200
20
950
30
0
11
305
21
730
31
0
0
LINE
8
WIRE
10
900
20
1100
30
0
11
480
21
950
31
0
0
LINE
8
WIRE
10
480
20
950
30
0
11
375
21
820
31
0
0
LINE
8
WIRE
10
480
20
950
30
0
11
445
21
820
31
0
0
LINE
8
WIRE
10
480
20
950
30
0
11
515
21
820
31
0
0
LINE
8
WIRE
10
480
20
950
30
0
11
585
21
820
31
0
0
LINE
8
WIRE
10
480
20
950
30
0
11
375
21
730
31
0
0
LINE
8
WIRE
10
480
20
950
30
0
11
445
21
730
31
0
0
LINE
8
WIRE
10
480
20
950
30
0
11
515
21
730
31
0
0
LINE
8
WIRE
10
480
20
950
30
0
11
585
21
730
31
0
0
LINE
8
WIRE
10
900
20
1100
30
0
11
760
21
950
31
0
0
LINE
8
WIRE
10
760
20
950
30
0
11
655
21
820
31
0
0
LINE
8
WIRE
10
760
20
950
30
0
11
725
21
820
31
0
0
LINE
8
WIRE
10
760
20
950
30
0
11
795
21
820
31
0
0
LINE
8
WIRE
10
760
20
950
30
0
11
865
21
820
31
0
0
LINE
8
WIRE
10
760
20
950
30
0
11
655
21
730
31
0
0
LINE
8
WIRE
10
760
20
950
30
0
11
725
21
730
31
0
0
LINE
8
WIRE
10
760
20
950
30
0
11
795
21
730
31
0
0
LINE
8
WIRE
10
760
20
950
30
0
11
865
21
730
31
0
0
LINE
8
WIRE
10
900
20
1100
30
0
11
1040
21
950
31
0
0
LINE
8
WIRE
10
1040
20
950
30
0
11
935
21
820
31
0
0
LINE
8
WIRE
10
1040
20
950
30
0
11
1005
21
820
31
0
0
LINE
8
WIRE
10
1040
20
950
30
0
11
1075
21
820
31
0
0
LINE
8
WIRE
10
1040
20
950
30
0
11
1145
21
820
31
0
0
LINE
8
WIRE
10
1040
20
950
30
0
11
935
21
730
31
0
0
LINE
8
WIRE
10
1040
20
950
30
0
11
1005
21
730
31
0
0
LINE
8
WIRE
10
1040
20
950
30
0
11
1075
21
730
31
0
0
LINE
8
WIRE
10
1040
20
950
30
0
11
1145
21
730
31
0
0
LINE
8
WIRE
10
900
20
1100
30
0
11
1320
21
950
31
0
0
LINE
8
WIRE
10
1320
20
950
30
0
11
1215
21
820
31
0
0
LINE
8
WIRE
10
1320
20
950
30
0
11
1285
21
820
31
0
0
LINE
8
WIRE
10
1320
20
950
30
0
11
1355
21
820
31
0
0
LINE
8
WIRE
10
1320
20
950
30
0
11
1425
21
820
31
0
0
LINE
8
WIRE
10
1320
20
950
30
0
11
1215
21
730
31
0
0
LINE
8
WIRE
10
1320
20
950
30
0
11
1285
21
730
31
0
0
LINE
8
WIRE
10
1320
20
950
30
0
11
1355
21
730
31
0
0
LINE
8
WIRE
10
1320
20
950
30
0
11
1425
21
730
31
0
0
LINE
8
WIRE
10
900
20
1100
30
0
11
1600
21
950
31
0
0
LINE
8
WIRE
10
1600
20
950
30
0
11
1495
21
820
31
0
0
LINE
8
WIRE
10
1600
20
950
30
0
11
1565
21
820
31
0
0
LINE
8
WIRE
10
1600
20
950
30
0
11
1635
21
820
31
0
0
LINE
8
WIRE
10
1600
20
950
30
0
11
1705
21
820
31
0
0
LINE
8
WIRE
10
1600
20
950
30
0
11
1495
21
730
31
0
0
LINE
8
WIRE
10
1600
20
950
30
0
11
1565
21
730
31
0
0
LINE
8
WIRE
10
1600
20
950
30
0
11
1635
21
730
31
0
0
LINE
8
WIRE
10
1600
20
950
30
0
11
1705
21
730
31
0
0
ENDSEC
0
EOF
