0
SECTION
2
HEADER
9
$ACADVER
1
AC1015
9
$INSUNITS
70
4
0
ENDSEC
0
SECTION
2
BLOCKS
0
BLOCK
8
0
2
VCB-UTILITY
70
0
10
0
20
0
30
0
3
VCB-UTILITY
0
LINE
8
SYMBOL
10
-8
20
-8
30
0
11
8
21
8
31
0
0
ENDBLK
8
0
0
BLOCK
8
0
2
GEN-EMERGENCY
70
0
10
0
20
0
30
0
3
GEN-EMERGENCY
0
LINE
8
SYMBOL
10
-8
20
-8
30
0
11
8
21
8
31
0
0
ENDBLK
8
0
0
BLOCK
8
0
2
ATS-1
70
0
10
0
20
0
30
0
3
ATS-1
0
LINE
8
SYMBOL
10
-8
20
-8
30
0
11
8
21
8
31
0
0
ENDBLK
8
0
0
BLOCK
8
0
2
UPS-1
70
0
10
0
20
0
30
0
3
UPS-1
0
LINE
8
SYMBOL
10
-8
20
-8
30
0
11
8
21
8
31
0
0
ENDBLK
8
0
0
BLOCK
8
0
2
BUSBAR-EM
70
0
10
0
20
0
30
0
3
BUSBAR-EM
0
LINE
8
SYMBOL
10
-8
20
-8
30
0
11
8
21
8
31
0
0
ENDBLK
8
0
0
BLOCK
8
0
2
DB-EM1
70
0
10
0
20
0
30
0
3
DB-EM1
0
LINE
8
SYMBOL
10
-8
20
-8
30
0
11
8
21
8
31
0
0
ENDBLK
8
0
0
BLOCK
8
0
2
LOAD-EM1
70
0
10
0
20
0
30
0
3
LOAD-EM1
0
LINE
8
SYMBOL
10
-8
20
-8
30
0
11
8
21
8
31
0
0
ENDBLK
8
0
0
BLOCK
8
0
2
DB-EM2
70
0
10
0
20
0
30
0
3
DB-EM2
0
LINE
8
SYMBOL
10
-8
20
-8
30
0
11
8
21
8
31
0
0
ENDBLK
8
0
0
BLOCK
8
0
2
LOAD-EM2
70
0
10
0
20
0
30
0
3
LOAD-EM2
0
LINE
8
SYMBOL
10
-8
20
-8
30
0
11
8
21
8
31
0
0
ENDBLK
8
0
0
BLOCK
8
0
2
DB-EM3
70
0
10
0
20
0
30
0
3
DB-EM3
0
LINE
8
SYMBOL
10
-8
20
-8
30
0
11
8
21
8
31
0
0
ENDBLK
8
0
0
BLOCK
8
0
2
LOAD-EM3
70
0
10
0
20
0
30
0
3
LOAD-EM3
0
LINE
8
SYMBOL
10
-8
20
-8
30
0
11
8
21
8
31
0
0
ENDBLK
8
0
0
BLOCK
8
0
2
DB-EM4
70
0
10
0
20
0
30
0
3
DB-EM4
0
LINE
8
SYMBOL
10
-8
20
-8
30
0
11
8
21
8
31
0
0
ENDBLK
8
0
0
BLOCK
8
0
2
LOAD-EM4
70
0
10
0
20
0
30
0
3
LOAD-EM4
0
LINE
8
SYMBOL
10
-8
20
-8
30
0
11
8
21
8
31
0
0
ENDBLK
8
0
0
BLOCK
8
0
2
DB-EM5
70
0
10
0
20
0
30
0
3
DB-EM5
0
LINE
8
SYMBOL
10
-8
20
-8
30
0
11
8
21
8
31
0
0
ENDBLK
8
0
0
BLOCK
8
0
2
LOAD-EM5
70
0
10
0
20
0
30
0
3
LOAD-EM5
0
LINE
8
SYMBOL
10
-8
20
-8
30
0
11
8
21
8
31
0
0
ENDBLK
8
0
0
BLOCK
8
0
2
DB-EM6
70
0
10
0
20
0
30
0
3
DB-EM6
0
LINE
8
SYMBOL
10
-8
20
-8
30
0
11
8
21
8
31
0
0
ENDBLK
8
0
0
BLOCK
8
0
2
LOAD-EM6
70
0
10
0
20
0
30
0
3
LOAD-EM6
0
LINE
8
SYMBOL
10
-8
20
-8
30
0
11
8
21
8
31
0
0
ENDBLK
8
0
0
BLOCK
8
0
2
DB-EM7
70
0
10
0
20
0
30
0
3
DB-EM7
0
LINE
8
SYMBOL
10
-8
20
-8
30
0
11
8
21
8
31
0
0
ENDBLK
8
0
0
BLOCK
8
0
2
LOAD-EM7
70
0
10
0
20
0
30
0
3
LOAD-EM7
0
LINE
8
SYMBOL
10
-8
20
-8
30
0
11
8
21
8
31
0
0
ENDBLK
8
0
0
BLOCK
8
0
2
DB-EM8
70
0
10
0
20
0
30
0
3
DB-EM8
0
LINE
8
SYMBOL
10
-8
20
-8
30
0
11
8
21
8
31
0
0
ENDBLK
8
0
0
BLOCK
8
0
2
LOAD-EM8
70
0
10
0
20
0
30
0
3
LOAD-EM8
0
LINE
8
SYMBOL
10
-8
20
-8
30
0
11
8
21
8
31
0
0
ENDBLK
8
0
0
ENDSEC
0
SECTION
2
ENTITIES
0
INSERT
8
SYMBOL
2
VCB-UTILITY
10
300
20
1200
30
0
0
INSERT
8
SYMBOL
2
GEN-EMERGENCY
10
1100
20
1200
30
0
0
INSERT
8
SYMBOL
2
ATS-1
10
700
20
1060
30
0
0
INSERT
8
SYMBOL
2
UPS-1
10
900
20
940
30
0
0
INSERT
8
SYMBOL
2
BUSBAR-EM
10
700
20
920
30
0
0
INSERT
8
SYMBOL
2
DB-EM1
10
200
20
780
30
0
0
INSERT
8
SYMBOL
2
LOAD-EM1
10
200
20
650
30
0
0
INSERT
8
SYMBOL
2
DB-EM2
10
340
20
780
30
0
0
INSERT
8
SYMBOL
2
LOAD-EM2
10
340
20
650
30
0
0
INSERT
8
SYMBOL
2
DB-EM3
10
480
20
780
30
0
0
INSERT
8
SYMBOL
2
LOAD-EM3
10
480
20
650
30
0
0
INSERT
8
SYMBOL
2
DB-EM4
10
620
20
780
30
0
0
INSERT
8
SYMBOL
2
LOAD-EM4
10
620
20
650
30
0
0
INSERT
8
SYMBOL
2
DB-EM5
10
760
20
780
30
0
0
INSERT
8
SYMBOL
2
LOAD-EM5
10
760
20
650
30
0
0
INSERT
8
SYMBOL
2
DB-EM6
10
900
20
780
30
0
0
INSERT
8
SYMBOL
2
LOAD-EM6
10
900
20
650
30
0
0
INSERT
8
SYMBOL
2
DB-EM7
10
1040
20
780
30
0
0
INSERT
8
SYMBOL
2
LOAD-EM7
10
1040
20
650
30
0
0
INSERT
8
SYMBOL
2
DB-EM8
10
1180
20
780
30
0
0
INSERT
8
SYMBOL
2
LOAD-EM8
10
1180
20
650
30
0
0
LINE
8
WIRE
10
300
20
1200
30
0
11
700
21
1060
31
0
0
LINE
8
WIRE
10
1100
20
1200
30
0
11
700
21
1060
31
0
0
LINE
8
WIRE
10
700
20
1060
30
0
11
700
21
920
31
0
0
LINE
8
WIRE
10
700
20
1060
30
0
11
900
21
940
31
0
0
LINE
8
WIRE
10
700
20
920
30
0
11
200
21
780
31
0
0
LINE
8
WIRE
10
200
20
780
30
0
11
200
21
650
31
0
0
LINE
8
WIRE
10
700
20
920
30
0
11
340
21
780
31
0
0
LINE
8
WIRE
10
340
20
780
30
0
11
340
21
650
31
0
0
LINE
8
WIRE
10
700
20
920
30
0
11
480
21
780
31
0
0
LINE
8
WIRE
10
480
20
780
30
0
11
480
21
650
31
0
0
LINE
8
WIRE
10
700
20
920
30
0
11
620
21
780
31
0
0
LINE
8
WIRE
10
620
20
780
30
0
11
620
21
650
31
0
0
LINE
8
WIRE
10
700
20
920
30
0
11
760
21
780
31
0
0
LINE
8
WIRE
10
760
20
780
30
0
11
760
21
650
31
0
0
LINE
8
WIRE
10
700
20
920
30
0
11
900
21
780
31
0
0
LINE
8
WIRE
10
900
20
780
30
0
11
900
21
650
31
0
0
LINE
8
WIRE
10
700
20
920
30
0
11
1040
21
780
31
0
0
LINE
8
WIRE
10
1040
20
780
30
0
11
1040
21
650
31
0
0
LINE
8
WIRE
10
700
20
920
30
0
11
1180
21
780
31
0
0
LINE
8
WIRE
10
1180
20
780
30
0
11
1180
21
650
31
0
0
ARC
8
SYMBOL
10
60
20
1300
30
0
40
25
50
0
51
180
0
ENDSEC
0
EOF
